<!-- Generated by IcoMoon.io -->
<svg version="1.1" xmlns="http://www.w3.org/2000/svg" width="260" height="260" viewBox="0 0 260 260">
<title>envelop</title>
<path d="M235.625 32.5h-211.25c-13.406 0-24.375 10.969-24.375 24.375v162.5c0 13.406 10.969 24.375 24.375 24.375h211.25c13.406 0 24.375-10.969 24.375-24.375v-162.5c0-13.406-10.969-24.375-24.375-24.375zM101.243 139.743l-68.743 53.547v-127.37l68.743 73.823zM44.784 65h170.432l-85.216 63.984-85.216-63.984zM103.921 142.619l26.079 28.006 26.079-28.006 53.461 68.631h-159.079l53.46-68.631zM158.757 139.743l68.743-73.823v127.37l-68.743-53.547z"></path>
</svg>
